ply
format ascii 1.0
comment Exported by RapidForm
element vertex 204
property float x
property float y
property float z
element face 404
property list uchar int vertex_index
end_header
5.339051 -6.743553 -5.109882
-1.340544 1.945662 9.735002
2.322313 -1.234441 9.632945
-2.423151 -0.836653 9.673715
1.848245 -3.959257 8.992728
4.430504 -2.216867 8.648479
-0.807870 -4.422358 8.906010
-2.101374 -2.818193 9.326514
-4.404977 0.370948 8.897116
-3.934556 -2.361149 8.858099
3.839696 0.959579 9.141639
0.414278 -6.058023 7.892786
-0.101784 4.684343 8.809749
-2.475502 4.887434 8.342063
3.875218 3.548391 8.474212
5.677494 -4.069336 7.080333
3.883918 -4.703734 7.869652
2.268690 5.674063 7.908231
6.402923 -2.169178 7.301207
-6.103531 2.298148 7.545980
5.068001 4.939001 7.003945
6.312486 -0.094461 7.799614
4.761227 -6.193340 6.179297
-1.740000 -6.533198 7.389908
-4.192238 -6.260357 6.515953
1.656427 7.659361 6.146652
2.453063 -6.410952 7.255371
-3.517418 6.842570 6.395731
-0.624836 7.020878 7.103611
7.246377 -3.256572 6.072818
6.822633 -5.172786 5.162143
-4.382406 8.071108 4.016939
7.895113 1.261547 5.965375
-6.580874 -5.452836 5.127127
-7.027973 -2.859292 6.525752
-7.263517 3.948290 5.599649
6.202972 6.062551 4.973029
9.163046 -0.297134 3.894451
-2.662232 -8.004944 5.354995
7.904834 4.859194 3.708031
-9.066736 2.740489 3.205210
7.674860 -5.549609 3.142020
5.790880 -7.324413 3.521617
-3.796383 -8.672634 3.087234
-9.169993 0.124931 3.840344
-6.115312 7.252888 2.892914
2.571007 8.769474 3.928405
2.628493 -9.500179 1.691427
-8.278925 -4.838669 2.766277
-9.162576 -2.229462 3.177657
-4.793232 8.651002 1.351732
-2.928393 9.177925 2.573389
4.618544 8.474440 2.404803
-8.616469 4.771978 1.238927
6.751768 6.848293 2.439821
9.569932 -2.202545 1.834889
8.645587 -4.430004 2.004337
-2.399138 -9.559038 1.462054
-9.924002 -0.141656 1.316670
2.930526 9.456474 1.076942
5.497808 8.365719 0.331726
9.888024 0.921795 1.163519
9.116546 -4.088193 0.301630
4.882023 -8.722212 0.651903
2.438989 -9.681290 -0.046690
0.150577 -9.929155 1.085060
-6.384068 -7.662730 -0.110075
-9.366924 -3.200986 0.816099
-7.000243 7.118814 0.424450
-2.792314 9.558052 0.476075
7.394191 6.634468 0.049186
9.809828 -1.891882 -0.687582
7.600832 -6.433191 0.694254
-8.099811 -5.790847 -0.034638
-9.631093 2.749074 0.205910
8.807684 4.408018 1.288895
9.513686 2.886024 -0.680551
9.738116 0.755664 -1.743730
-2.282816 -9.562278 -1.203191
-5.106652 -8.382643 -2.027360
-6.951257 -6.918466 -1.788981
-9.822131 -1.693894 -0.838538
-4.199509 8.751825 -2.141978
3.443571 -9.202409 -1.904233
0.710293 -9.843886 -1.685768
-9.341322 2.922344 -2.001348
-8.475935 5.126677 -1.340526
-6.664087 7.048972 -2.407471
6.362147 7.466041 -2.037244
8.380897 5.119843 -1.747673
8.583907 -4.625388 -2.120346
6.161903 -7.463267 -2.339618
-9.094445 -3.610481 -1.719274
-9.782732 0.512623 -1.845445
9.198664 2.904706 -2.522947
8.032337 -3.364090 -4.824253
1.655794 -9.167318 -3.548913
-0.963023 -9.065659 -4.154431
-8.577135 3.939962 -3.313950
-1.367996 9.104219 -3.791543
0.930553 9.450463 -3.050561
8.313624 3.975494 -3.845228
-3.389977 -7.406221 -5.818162
-8.926470 1.969388 -3.909676
1.360056 -8.184126 -5.533340
-6.365473 -6.697121 -3.750295
-7.791757 3.498742 -5.218185
-7.313685 5.504942 -3.947878
7.158948 -5.598575 -4.164219
3.691415 -8.290501 -4.165039
-5.381797 -6.320914 -5.447005
-6.896360 -4.835763 -5.270466
-7.945998 1.464757 -5.823678
-5.322676 6.984279 -4.803703
2.709330 8.557957 -4.308376
4.821999 7.611558 -4.255112
8.825374 1.555222 -4.361633
0.720079 8.048638 -5.781912
6.909662 5.868118 -4.168107
7.204638 3.817652 -5.770447
6.289936 -4.675397 -6.174290
-0.882423 -7.314132 -6.659919
-4.928408 -4.754164 -7.205798
-4.080165 5.621656 -7.211383
3.246023 7.306496 -5.918365
6.739269 -2.289402 -6.992688
-6.545467 2.451604 -7.119315
5.147143 5.753969 -6.264538
-7.071878 -2.582872 -6.519839
-2.476830 7.615024 -5.872760
1.489270 -6.248331 -7.648304
-6.873831 -0.040538 -7.222060
-5.076589 -1.904237 -8.378347
-0.233692 6.378961 -7.621412
5.218721 3.153203 -7.880775
-0.854588 -5.486821 -8.188635
-2.603730 -3.654777 -8.942438
2.524003 5.630837 -7.831093
-2.913511 3.556525 -8.877006
0.010188 3.978060 -9.168186
4.880995 -3.528752 -8.011864
-4.593406 1.082782 -8.820899
-1.963707 5.562335 -7.975098
2.652386 3.108656 -9.091127
3.689672 0.611145 -9.249894
-1.143357 -1.680082 -9.720417
0.544264 -3.646033 -9.280845
1.230303 1.622961 -9.755681
1.031392 -0.752202 -9.944032
3.082764 -2.209155 -9.200177
-3.083472 -1.074032 -9.433218
-1.423329 0.986915 -9.838019
2.858625 -4.354207 -8.485678
5.093163 -1.420272 -8.449844
6.288059 0.239308 -7.715313
-4.952078 3.587053 -7.887533
3.246918 -7.190016 -6.034546
-2.640323 -5.917504 -7.614180
4.129085 -5.629949 -7.121481
7.378268 1.681791 -6.503046
-6.145616 4.830333 -6.213383
-8.729077 -0.543751 -4.878396
-8.392114 -3.135153 -4.207507
8.058861 -0.656411 -5.720694
-7.895122 -5.281031 -2.912561
-9.450717 -1.738128 -2.809910
-4.787388 -7.640954 -4.213977
-3.350828 -8.677380 -3.546655
9.274914 -1.501574 -3.326600
-1.186656 9.827815 -1.247997
3.612848 9.048520 -1.874497
1.217550 9.871920 -0.606923
-4.532213 -8.849212 0.641948
-1.195058 -9.273369 3.564113
4.940004 7.708306 4.060081
-0.278761 9.765275 2.067110
-7.644679 5.507134 3.233434
-6.395070 -7.299208 2.410677
3.719985 -8.710990 2.977555
8.450775 -3.235403 4.099729
8.860710 2.544344 3.702128
-1.998208 8.580174 4.715047
1.496811 -9.248351 3.571691
0.220356 8.634986 4.933161
-8.065558 -3.461270 4.656446
-4.886344 -7.375908 4.603308
-5.867408 6.220021 5.121748
-8.083422 1.363777 5.704668
-8.376053 -1.252048 5.397382
7.831911 -1.259458 5.982477
0.288709 -8.035480 5.984515
3.206243 -7.973146 5.120087
7.276096 3.799522 5.685268
3.860886 7.029801 5.878755
-5.270660 -4.093211 7.415371
5.939170 2.502250 7.624656
-5.004746 4.693437 7.239412
-3.099781 -4.601925 8.247900
-6.750343 -0.269527 7.234701
-5.616151 -1.861486 8.006713
-3.920401 2.950539 8.641481
1.700446 3.065561 9.387970
1.316127 0.691478 9.893787
-0.144284 -1.546123 9.898415
3 151 147 148
3 149 148 144
3 148 147 144
3 151 148 145
3 139 147 151
3 145 148 146
3 147 143 144
3 138 139 151
3 150 151 145
3 150 145 136
3 148 149 146
3 152 146 149
3 139 143 147
3 139 138 142
3 138 151 141
3 151 150 141
3 136 132 150
3 153 140 149
3 155 138 141
3 150 132 141
3 122 132 136
3 149 144 153
3 137 143 139
3 133 137 139
3 139 142 133
3 131 126 141
3 146 136 145
3 146 135 136
3 152 130 146
3 140 158 152
3 149 140 152
3 153 144 154
3 143 134 144
3 137 134 143
3 134 137 127
3 155 141 126
3 128 131 132
3 141 132 131
3 146 130 135
3 156 130 158
3 152 158 130
3 154 144 134
3 117 137 133
3 142 129 133
3 123 142 138
3 138 155 123
3 122 128 132
3 157 136 135
3 153 125 140
3 133 129 117
3 142 123 129
3 160 155 126
3 131 112 126
3 161 131 128
3 111 128 122
3 136 157 122
3 153 154 125
3 163 154 159
3 159 154 134
3 127 137 124
3 117 124 137
3 161 112 131
3 161 128 162
3 157 135 121
3 130 121 135
3 121 130 104
3 130 156 104
3 120 158 140
3 120 140 125
3 163 125 154
3 127 119 134
3 127 118 119
3 127 115 118
3 155 160 123
3 160 126 106
3 112 106 126
3 122 110 111
3 157 102 122
3 0 156 158
3 119 159 134
3 163 159 116
3 159 119 116
3 127 124 115
3 117 114 124
3 123 113 129
3 160 113 123
3 107 113 160
3 162 128 111
3 102 110 122
3 157 121 102
3 104 97 121
3 156 0 109
3 108 0 120
3 125 95 120
3 120 95 108
3 163 95 125
3 129 99 117
3 106 107 160
3 112 103 106
3 164 111 105
3 110 105 111
3 156 109 104
3 119 101 116
3 124 114 115
3 100 114 117
3 161 103 112
3 162 111 164
3 110 166 105
3 102 166 110
3 166 102 167
3 167 102 97
3 121 97 102
3 95 163 168
3 168 163 116
3 119 118 101
3 118 115 88
3 117 99 100
3 106 98 107
3 85 98 103
3 106 103 98
3 162 165 161
3 165 162 92
3 162 164 92
3 104 96 97
3 97 96 84
3 109 96 104
3 101 94 116
3 89 94 101
3 115 114 170
3 113 107 87
3 93 85 103
3 103 161 93
3 161 165 93
3 83 96 109
3 109 0 91
3 0 108 91
3 95 90 108
3 168 90 95
3 118 89 101
3 88 89 118
3 170 88 115
3 100 99 169
3 169 99 82
3 129 82 99
3 113 82 129
3 86 87 107
3 98 86 107
3 85 86 98
3 80 164 105
3 166 79 105
3 167 79 166
3 83 84 96
3 109 91 83
3 71 90 168
3 116 77 168
3 170 114 100
3 170 100 171
3 171 100 169
3 113 87 82
3 74 85 93
3 165 92 81
3 73 92 164
3 105 79 80
3 78 79 167
3 97 78 167
3 84 78 97
3 90 91 108
3 62 90 71
3 116 94 77
3 69 169 82
3 81 93 165
3 164 80 73
3 64 84 83
3 77 94 76
3 94 89 76
3 89 75 76
3 59 170 171
3 87 68 82
3 87 86 68
3 58 74 93
3 92 67 81
3 66 73 80
3 66 80 79
3 64 83 63
3 72 91 90
3 62 72 90
3 71 168 77
3 77 76 61
3 75 89 70
3 88 70 89
3 88 60 70
3 88 170 60
3 169 175 171
3 169 69 175
3 85 74 86
3 93 81 58
3 92 73 67
3 172 66 79
3 172 79 78
3 78 84 65
3 47 65 64
3 84 64 65
3 83 91 63
3 91 72 63
3 61 76 75
3 59 60 170
3 175 59 171
3 49 58 67
3 81 67 58
3 78 65 57
3 72 62 56
3 55 62 71
3 77 61 71
3 55 71 61
3 54 70 60
3 82 50 69
3 86 53 68
3 86 74 53
3 40 53 74
3 67 73 48
3 62 55 56
3 59 52 60
3 69 51 175
3 50 51 69
3 82 68 50
3 74 58 40
3 48 49 67
3 73 177 48
3 66 177 73
3 66 172 177
3 78 57 172
3 65 173 57
3 63 47 64
3 179 56 55
3 55 61 37
3 37 61 180
3 180 61 75
3 75 70 54
3 60 52 54
3 181 175 51
3 50 31 51
3 176 68 53
3 176 53 40
3 173 65 182
3 47 182 65
3 47 63 178
3 72 42 63
3 178 63 42
3 75 54 39
3 59 46 52
3 59 175 46
3 181 51 31
3 31 50 45
3 68 45 50
3 68 176 45
3 40 58 44
3 58 49 44
3 49 48 184
3 177 172 43
3 57 43 172
3 57 173 43
3 182 47 178
3 72 41 42
3 72 56 41
3 56 179 41
3 179 55 37
3 54 52 174
3 46 175 183
3 183 175 181
3 44 49 188
3 48 177 33
3 185 33 177
3 185 177 43
3 189 179 37
3 75 39 180
3 52 46 174
3 45 176 186
3 40 44 187
3 187 44 188
3 49 184 188
3 188 184 34
3 48 33 184
3 38 43 173
3 182 190 173
3 182 178 191
3 30 42 41
3 179 30 41
3 54 36 39
3 174 36 54
3 36 174 193
3 186 176 35
3 176 40 35
3 40 187 35
3 33 34 184
3 43 38 185
3 190 182 191
3 178 42 191
3 192 180 39
3 39 36 192
3 174 46 193
3 193 46 25
3 28 25 183
3 46 183 25
3 31 27 181
3 181 27 28
3 31 45 186
3 24 33 185
3 173 190 38
3 189 29 179
3 179 29 30
3 180 32 37
3 37 32 189
3 192 32 180
3 192 36 20
3 36 193 20
3 183 181 28
3 33 194 34
3 194 33 24
3 38 24 185
3 190 191 26
3 22 26 191
3 191 42 22
3 195 32 192
3 31 186 27
3 196 27 186
3 196 186 35
3 194 24 197
3 190 23 38
3 42 30 22
3 30 29 15
3 32 21 189
3 32 195 21
3 196 35 19
3 35 187 19
3 187 198 19
3 187 188 198
3 188 34 198
3 199 34 194
3 22 16 26
3 189 18 29
3 189 21 18
3 20 193 17
3 193 25 17
3 25 28 17
3 27 13 28
3 198 34 199
3 199 194 9
3 197 24 23
3 38 23 24
3 30 15 22
3 22 15 16
3 29 18 15
3 14 20 17
3 28 13 12
3 27 196 13
3 26 11 190
3 10 195 14
3 28 12 17
3 200 13 196
3 19 200 196
3 7 9 197
3 194 197 9
3 23 11 6
3 23 190 11
3 16 4 26
3 26 4 11
3 16 15 5
3 15 18 5
3 200 19 8
3 7 197 6
3 23 6 197
3 21 195 10
3 14 17 201
3 17 12 201
3 19 198 8
3 198 199 8
3 199 9 8
3 4 6 11
3 18 21 5
3 21 10 5
3 14 201 10
3 16 5 4
3 5 2 4
3 2 10 202
3 13 1 12
3 13 200 1
3 8 9 3
3 7 3 9
3 4 203 6
3 6 203 7
3 10 2 5
3 10 201 202
3 1 201 12
3 200 8 1
3 2 203 4
3 203 1 3
3 8 3 1
3 7 203 3
3 1 202 201
3 203 2 202
3 1 203 202
3 120 0 158
3 192 20 195
3 20 14 195
